# xmcd
#
# Track frame offsets:
#	150
#	2111
#	23474
#	36920
#	56854
#	72831
#	91868
#	93431
#	107895
#	126867
#	147524
#	166873
#	170499
#	191601
#	211892
#	228758
#	240783
#	260590
#	275664
#	280520
#	299837
#	301527
#
# Disc length: 4234 seconds
#
# Revision: 0
# Processed by: cddbd v1.5PL3 Copyright (c) Steve Scherf et al.
# Submitted via: dBpowerAMP V4.0
#
DISCID=31108816
DTITLE=Snoop dogg - Tha eastsidaz
DYEAR=2000
DGENRE=Rap
TTITLE0=Intro
TTITLE1=Now we lay ém down
TTITLE2=Tha eastsidaz
TTITLE3=Dogghouse featuring Tha logs
TTITLE4=Give it to ém dogg
TTITLE5=Got beef
TTITLE6=Real talk
TTITLE7=Balls of steel 
TTITLE8=N***a 4 life
TTITLE9=6'd up
TTITLE10=Another day
TTITLE11=Tha mac ten commandments
TTITLE12=Ghetto
TTITLE13=Big bang
TTITLE14=Be thankful
TTITLE15=How you livin
TTITLE16=Take it back to 85
TTITLE17=Tha G in deee
TTITLE18=Tha mac bible
TTITLE19=Pussy sells
TTITLE20=LBC thang
TTITLE21=Life goes on
EXTD=Snoop dogg presents Tha eastsidaz
EXTT0=
EXTT1=
EXTT2=
EXTT3=
EXTT4=
EXTT5=
EXTT6=
EXTT7=
EXTT8=
EXTT9=
EXTT10=
EXTT11=
EXTT12=
EXTT13=
EXTT14=
EXTT15=
EXTT16=
EXTT17=
EXTT18=
EXTT19=
EXTT20=
EXTT21=
PLAYORDER=
